<svg xmlns="http://www.w3.org/2000/svg" viewBox="0 0 69.999809 90.000024" x="0px" y="0px"><path d="m304.99 554.7v57.664c-5.762-2.408-13.395-1.633-19.983 2.027-10.1 5.626-14.687 16.204-10.244 23.628 4.443 7.424 16.234 8.882 26.336 3.257 7.07-3.949 11.711-10.541 11.906-16.926.062-16.681.031-32.913.031-49.649 14.583 0 23.22 5.668 20.01 20-1.751 7.312-5.48 13.736-10.02 18.205 11.979-6.671 20.04-17.474 20.04-28.2 0-10-9.692-16.04-18.04-20-4.26-2.02-9.993-4.952-11.994-10h-8.05z" transform="translate(-273.07-554.7)"></path></svg>